<mxfile host="app.diagrams.net" agent="Mozilla/5.0 (Windows NT 10.0; Win64; x64; rv:128.0) Gecko/20100101 Firefox/128.0" border="50" scale="3" compressed="false" locked="false" version="26.1.1">
  <diagram name="Blank" id="YmL12bMKpDGza6XwsDPr">
    <mxGraphModel grid="0" page="0" gridSize="10" guides="1" tooltips="1" connect="1" arrows="1" fold="1" pageScale="1" pageWidth="827" pageHeight="1169" background="none" math="1" shadow="0">
      <root>
        <mxCell id="X5NqExCQtvZxIxQ7pmgY-0" />
        <mxCell id="1" parent="X5NqExCQtvZxIxQ7pmgY-0" />
        <mxCell id="Ur5sL58et8Hm5xEwITMn-1" value="DP-900" style="strokeWidth=2;html=1;shape=mxgraph.flowchart.start_1;whiteSpace=wrap;" vertex="1" parent="1">
          <mxGeometry x="363" y="104" width="100" height="60" as="geometry" />
        </mxCell>
        <mxCell id="Ur5sL58et8Hm5xEwITMn-3" value="AZURE DATA FACTORY&lt;br&gt;&lt;div&gt;ingesta de datos ETL, canalizaciones&lt;br&gt;&lt;/div&gt;&lt;div&gt;&lt;br&gt;&lt;/div&gt;" style="rounded=1;whiteSpace=wrap;html=1;absoluteArcSize=1;arcSize=14;strokeWidth=2;" vertex="1" parent="1">
          <mxGeometry x="1346" y="985" width="153" height="68" as="geometry" />
        </mxCell>
        <mxCell id="e_UDPuE6Xy4Sm-jNLqe0-1" style="edgeStyle=orthogonalEdgeStyle;rounded=0;orthogonalLoop=1;jettySize=auto;html=1;exitX=0.25;exitY=0;exitDx=0;exitDy=0;dashed=1;" edge="1" parent="1" source="Ur5sL58et8Hm5xEwITMn-4" target="Ur5sL58et8Hm5xEwITMn-5">
          <mxGeometry relative="1" as="geometry">
            <Array as="points">
              <mxPoint x="1781" y="862" />
              <mxPoint x="1781" y="728" />
              <mxPoint x="754" y="728" />
            </Array>
          </mxGeometry>
        </mxCell>
        <mxCell id="e_UDPuE6Xy4Sm-jNLqe0-2" value="ejecutan tareas de procesamiento" style="edgeLabel;html=1;align=center;verticalAlign=middle;resizable=0;points=[];" connectable="0" vertex="1" parent="e_UDPuE6Xy4Sm-jNLqe0-1">
          <mxGeometry x="-0.85" y="-2" relative="1" as="geometry">
            <mxPoint x="-2" y="-45" as="offset" />
          </mxGeometry>
        </mxCell>
        <mxCell id="Ur5sL58et8Hm5xEwITMn-4" value="&lt;div&gt;AZURE DATABRICKS&lt;/div&gt;&lt;div&gt;SERVICIO&lt;br&gt;grandes cantidades de datos compatibles&lt;br&gt;&lt;/div&gt;" style="rounded=1;whiteSpace=wrap;html=1;absoluteArcSize=1;arcSize=14;strokeWidth=2;" vertex="1" parent="1">
          <mxGeometry x="1677" y="862" width="140" height="68" as="geometry" />
        </mxCell>
        <mxCell id="Ur5sL58et8Hm5xEwITMn-5" value="&lt;div&gt;HDINSIGHT DE AZURE&lt;/div&gt;" style="rounded=1;whiteSpace=wrap;html=1;absoluteArcSize=1;arcSize=14;strokeWidth=2;" vertex="1" parent="1">
          <mxGeometry x="673" y="525" width="162" height="68" as="geometry" />
        </mxCell>
        <mxCell id="Ur5sL58et8Hm5xEwITMn-59" style="edgeStyle=orthogonalEdgeStyle;rounded=0;orthogonalLoop=1;jettySize=auto;html=1;exitX=1;exitY=0.75;exitDx=0;exitDy=0;entryX=0;entryY=0.5;entryDx=0;entryDy=0;" edge="1" parent="1" source="Ur5sL58et8Hm5xEwITMn-6" target="Ur5sL58et8Hm5xEwITMn-15">
          <mxGeometry relative="1" as="geometry" />
        </mxCell>
        <mxCell id="2TvXG0lYQUJPYE8Xq-nl-1" style="edgeStyle=orthogonalEdgeStyle;rounded=0;orthogonalLoop=1;jettySize=auto;html=1;exitX=0;exitY=0.5;exitDx=0;exitDy=0;entryX=0;entryY=0.5;entryDx=0;entryDy=0;startArrow=classic;startFill=1;" edge="1" parent="1" source="Ur5sL58et8Hm5xEwITMn-6" target="Ur5sL58et8Hm5xEwITMn-3">
          <mxGeometry relative="1" as="geometry">
            <Array as="points">
              <mxPoint x="1197" y="910" />
              <mxPoint x="1197" y="1019" />
            </Array>
          </mxGeometry>
        </mxCell>
        <mxCell id="2TvXG0lYQUJPYE8Xq-nl-2" value="canalización procesa&lt;br&gt; datos en respuesta a un evento" style="edgeLabel;html=1;align=center;verticalAlign=middle;resizable=0;points=[];" connectable="0" vertex="1" parent="2TvXG0lYQUJPYE8Xq-nl-1">
          <mxGeometry x="-0.0073" y="-2" relative="1" as="geometry">
            <mxPoint as="offset" />
          </mxGeometry>
        </mxCell>
        <mxCell id="2TvXG0lYQUJPYE8Xq-nl-13" value="" style="edgeStyle=orthogonalEdgeStyle;rounded=0;orthogonalLoop=1;jettySize=auto;html=1;" edge="1" parent="1" source="Ur5sL58et8Hm5xEwITMn-6" target="2TvXG0lYQUJPYE8Xq-nl-12">
          <mxGeometry relative="1" as="geometry" />
        </mxCell>
        <mxCell id="Ur5sL58et8Hm5xEwITMn-6" value="&lt;div&gt;AZURE SYNAPSE ANALYTICS&lt;/div&gt;&lt;div&gt;&lt;br&gt;&lt;/div&gt;&lt;div&gt;Analisis tiempo real en datos operativos&lt;br&gt;&lt;/div&gt;" style="rounded=1;whiteSpace=wrap;html=1;absoluteArcSize=1;arcSize=14;strokeWidth=2;" vertex="1" parent="1">
          <mxGeometry x="1348" y="849" width="140" height="122" as="geometry" />
        </mxCell>
        <mxCell id="Ur5sL58et8Hm5xEwITMn-7" value="APACHE HADOOP" style="rounded=1;whiteSpace=wrap;html=1;absoluteArcSize=1;arcSize=14;strokeWidth=2;" vertex="1" parent="1">
          <mxGeometry x="899" y="413" width="140" height="68" as="geometry" />
        </mxCell>
        <mxCell id="Ur5sL58et8Hm5xEwITMn-8" style="edgeStyle=orthogonalEdgeStyle;rounded=0;orthogonalLoop=1;jettySize=auto;html=1;exitX=1;exitY=0.5;exitDx=0;exitDy=0;entryX=0.686;entryY=1;entryDx=0;entryDy=0;entryPerimeter=0;" edge="1" parent="1" source="Ur5sL58et8Hm5xEwITMn-5" target="Ur5sL58et8Hm5xEwITMn-7">
          <mxGeometry relative="1" as="geometry" />
        </mxCell>
        <mxCell id="Ur5sL58et8Hm5xEwITMn-9" value="Procesa grandes cantidades de datos" style="edgeLabel;html=1;align=center;verticalAlign=middle;resizable=0;points=[];" connectable="0" vertex="1" parent="Ur5sL58et8Hm5xEwITMn-8">
          <mxGeometry x="0.2294" y="-3" relative="1" as="geometry">
            <mxPoint as="offset" />
          </mxGeometry>
        </mxCell>
        <mxCell id="Ur5sL58et8Hm5xEwITMn-10" value="Almacenamiento de Datos" style="rounded=1;whiteSpace=wrap;html=1;absoluteArcSize=1;arcSize=14;strokeWidth=2;" vertex="1" parent="1">
          <mxGeometry x="-81" y="222" width="153" height="68" as="geometry" />
        </mxCell>
        <mxCell id="Ur5sL58et8Hm5xEwITMn-12" value="&lt;div&gt;estrella&lt;/div&gt;&lt;div&gt;tablas de hechos&lt;/div&gt;tablas dimensionales" style="strokeWidth=2;html=1;shape=mxgraph.flowchart.annotation_2;align=left;labelPosition=right;pointerEvents=1;rotation=0;" vertex="1" parent="1">
          <mxGeometry x="115" y="206" width="76" height="100" as="geometry" />
        </mxCell>
        <mxCell id="Ur5sL58et8Hm5xEwITMn-14" style="edgeStyle=orthogonalEdgeStyle;rounded=0;orthogonalLoop=1;jettySize=auto;html=1;exitX=1;exitY=0.5;exitDx=0;exitDy=0;entryX=0;entryY=0.5;entryDx=0;entryDy=0;entryPerimeter=0;" edge="1" parent="1" source="Ur5sL58et8Hm5xEwITMn-10" target="Ur5sL58et8Hm5xEwITMn-12">
          <mxGeometry relative="1" as="geometry" />
        </mxCell>
        <mxCell id="Ur5sL58et8Hm5xEwITMn-15" value="&lt;div&gt;APACHE SPARK&lt;/div&gt;&lt;div&gt;SERVICIO&lt;br&gt;&lt;/div&gt;" style="rounded=1;whiteSpace=wrap;html=1;absoluteArcSize=1;arcSize=14;strokeWidth=2;" vertex="1" parent="1">
          <mxGeometry x="1683" y="954" width="140" height="68" as="geometry" />
        </mxCell>
        <mxCell id="Ur5sL58et8Hm5xEwITMn-17" style="edgeStyle=orthogonalEdgeStyle;rounded=0;orthogonalLoop=1;jettySize=auto;html=1;exitX=0;exitY=0.25;exitDx=0;exitDy=0;entryX=1;entryY=0.5;entryDx=0;entryDy=0;" edge="1" parent="1" source="Ur5sL58et8Hm5xEwITMn-16" target="Ur5sL58et8Hm5xEwITMn-4">
          <mxGeometry relative="1" as="geometry" />
        </mxCell>
        <mxCell id="Ur5sL58et8Hm5xEwITMn-18" style="edgeStyle=orthogonalEdgeStyle;rounded=0;orthogonalLoop=1;jettySize=auto;html=1;exitX=0;exitY=0.75;exitDx=0;exitDy=0;entryX=1;entryY=0.5;entryDx=0;entryDy=0;" edge="1" parent="1" source="Ur5sL58et8Hm5xEwITMn-16" target="Ur5sL58et8Hm5xEwITMn-15">
          <mxGeometry relative="1" as="geometry" />
        </mxCell>
        <mxCell id="Ur5sL58et8Hm5xEwITMn-16" value="SCALA" style="rounded=1;whiteSpace=wrap;html=1;absoluteArcSize=1;arcSize=14;strokeWidth=2;" vertex="1" parent="1">
          <mxGeometry x="1890" y="849" width="140" height="68" as="geometry" />
        </mxCell>
        <mxCell id="Ur5sL58et8Hm5xEwITMn-20" style="edgeStyle=orthogonalEdgeStyle;rounded=0;orthogonalLoop=1;jettySize=auto;html=1;exitX=1;exitY=0.25;exitDx=0;exitDy=0;entryX=0;entryY=0.25;entryDx=0;entryDy=0;" edge="1" parent="1" source="Ur5sL58et8Hm5xEwITMn-19" target="Ur5sL58et8Hm5xEwITMn-6">
          <mxGeometry relative="1" as="geometry" />
        </mxCell>
        <mxCell id="Ur5sL58et8Hm5xEwITMn-19" value="&lt;div&gt;AZURE COSMO DB&lt;/div&gt;&lt;div&gt;SERVICIO + SOLUCION&lt;br&gt;&lt;br&gt;-JSON, API&lt;br&gt;-datos como bd grafos&lt;br&gt;- no estructurados, pares clave valor, graficos, familia de columnas&lt;br&gt;-informes analiticos con json&lt;/div&gt;&lt;div&gt;&lt;br&gt;&lt;/div&gt;&lt;div&gt;json a almacenar con menor esfuerzo desarrollo&lt;br&gt;&lt;/div&gt;&lt;div&gt;&lt;br&gt;&lt;/div&gt;&lt;div&gt;&lt;br&gt;&lt;/div&gt;" style="rounded=1;whiteSpace=wrap;html=1;absoluteArcSize=1;arcSize=14;strokeWidth=2;fillColor=#60a917;fontColor=#ffffff;strokeColor=#2D7600;" vertex="1" parent="1">
          <mxGeometry x="904" y="767" width="153" height="238" as="geometry" />
        </mxCell>
        <mxCell id="Ur5sL58et8Hm5xEwITMn-21" value="Procesamiento por lotes" style="rounded=1;whiteSpace=wrap;html=1;absoluteArcSize=1;arcSize=14;strokeWidth=2;" vertex="1" parent="1">
          <mxGeometry x="-101" y="370" width="153" height="68" as="geometry" />
        </mxCell>
        <mxCell id="Ur5sL58et8Hm5xEwITMn-22" value="se puede realizar un análisis complejo" style="strokeWidth=2;html=1;shape=mxgraph.flowchart.annotation_2;align=left;labelPosition=right;pointerEvents=1;rotation=0;" vertex="1" parent="1">
          <mxGeometry x="100" y="354" width="76" height="100" as="geometry" />
        </mxCell>
        <mxCell id="Ur5sL58et8Hm5xEwITMn-23" style="edgeStyle=orthogonalEdgeStyle;rounded=0;orthogonalLoop=1;jettySize=auto;html=1;exitX=1;exitY=0.5;exitDx=0;exitDy=0;entryX=0;entryY=0.5;entryDx=0;entryDy=0;entryPerimeter=0;" edge="1" parent="1" source="Ur5sL58et8Hm5xEwITMn-21" target="Ur5sL58et8Hm5xEwITMn-22">
          <mxGeometry relative="1" as="geometry" />
        </mxCell>
        <mxCell id="Ur5sL58et8Hm5xEwITMn-24" value="&lt;div&gt;AZURE IoT HUB&lt;/div&gt;&lt;div&gt;SERVICIO&lt;br&gt;&lt;/div&gt;" style="rounded=1;whiteSpace=wrap;html=1;absoluteArcSize=1;arcSize=14;strokeWidth=2;" vertex="1" parent="1">
          <mxGeometry x="1124" y="377" width="140" height="68" as="geometry" />
        </mxCell>
        <mxCell id="Ur5sL58et8Hm5xEwITMn-28" style="edgeStyle=orthogonalEdgeStyle;rounded=0;orthogonalLoop=1;jettySize=auto;html=1;exitX=1;exitY=0.5;exitDx=0;exitDy=0;" edge="1" parent="1" source="Ur5sL58et8Hm5xEwITMn-25" target="Ur5sL58et8Hm5xEwITMn-26">
          <mxGeometry relative="1" as="geometry" />
        </mxCell>
        <mxCell id="Ur5sL58et8Hm5xEwITMn-25" value="&lt;div&gt;AZURE EVENT HUBS&lt;/div&gt;&lt;div&gt;SERVICIO&lt;br&gt;&lt;/div&gt;" style="rounded=1;whiteSpace=wrap;html=1;absoluteArcSize=1;arcSize=14;strokeWidth=2;" vertex="1" parent="1">
          <mxGeometry x="1124" y="471" width="140" height="68" as="geometry" />
        </mxCell>
        <mxCell id="2TvXG0lYQUJPYE8Xq-nl-4" value="" style="edgeStyle=orthogonalEdgeStyle;rounded=0;orthogonalLoop=1;jettySize=auto;html=1;entryX=0.013;entryY=0.8;entryDx=0;entryDy=0;entryPerimeter=0;" edge="1" parent="1" source="Ur5sL58et8Hm5xEwITMn-26" target="2TvXG0lYQUJPYE8Xq-nl-5">
          <mxGeometry relative="1" as="geometry">
            <mxPoint x="1565.5" y="438" as="targetPoint" />
          </mxGeometry>
        </mxCell>
        <mxCell id="Ur5sL58et8Hm5xEwITMn-26" value="Procesamiento de flujos" style="verticalLabelPosition=bottom;verticalAlign=top;html=1;shape=mxgraph.flowchart.parallel_mode;pointerEvents=1" vertex="1" parent="1">
          <mxGeometry x="1383" y="448" width="95" height="40" as="geometry" />
        </mxCell>
        <mxCell id="Ur5sL58et8Hm5xEwITMn-27" style="edgeStyle=orthogonalEdgeStyle;rounded=0;orthogonalLoop=1;jettySize=auto;html=1;exitX=1;exitY=0.5;exitDx=0;exitDy=0;entryX=0.105;entryY=0.15;entryDx=0;entryDy=0;entryPerimeter=0;" edge="1" parent="1" source="Ur5sL58et8Hm5xEwITMn-24" target="Ur5sL58et8Hm5xEwITMn-26">
          <mxGeometry relative="1" as="geometry" />
        </mxCell>
        <mxCell id="Ur5sL58et8Hm5xEwITMn-29" value="KAFKA" style="rounded=1;whiteSpace=wrap;html=1;absoluteArcSize=1;arcSize=14;strokeWidth=2;" vertex="1" parent="1">
          <mxGeometry x="1120.5" y="572" width="103" height="68" as="geometry" />
        </mxCell>
        <mxCell id="Ur5sL58et8Hm5xEwITMn-37" style="edgeStyle=orthogonalEdgeStyle;rounded=0;orthogonalLoop=1;jettySize=auto;html=1;exitX=1;exitY=0.5;exitDx=0;exitDy=0;exitPerimeter=0;entryX=0;entryY=0.5;entryDx=0;entryDy=0;" edge="1" parent="1" source="Ur5sL58et8Hm5xEwITMn-33" target="Ur5sL58et8Hm5xEwITMn-36">
          <mxGeometry relative="1" as="geometry" />
        </mxCell>
        <mxCell id="2TvXG0lYQUJPYE8Xq-nl-17" value="" style="edgeStyle=orthogonalEdgeStyle;rounded=0;orthogonalLoop=1;jettySize=auto;html=1;" edge="1" parent="1" source="Ur5sL58et8Hm5xEwITMn-33" target="2TvXG0lYQUJPYE8Xq-nl-16">
          <mxGeometry relative="1" as="geometry" />
        </mxCell>
        <mxCell id="Ur5sL58et8Hm5xEwITMn-33" value="COLA" style="verticalLabelPosition=bottom;verticalAlign=top;html=1;strokeWidth=2;shape=mxgraph.arrows2.arrow;dy=0.6;dx=40;notch=0;" vertex="1" parent="1">
          <mxGeometry x="1130.5" y="683" width="100" height="70" as="geometry" />
        </mxCell>
        <mxCell id="Ur5sL58et8Hm5xEwITMn-34" style="edgeStyle=orthogonalEdgeStyle;rounded=0;orthogonalLoop=1;jettySize=auto;html=1;exitX=0.25;exitY=1;exitDx=0;exitDy=0;entryX=0.09;entryY=0.286;entryDx=0;entryDy=0;entryPerimeter=0;" edge="1" parent="1" source="Ur5sL58et8Hm5xEwITMn-29" target="Ur5sL58et8Hm5xEwITMn-33">
          <mxGeometry relative="1" as="geometry" />
        </mxCell>
        <mxCell id="Ur5sL58et8Hm5xEwITMn-39" style="edgeStyle=orthogonalEdgeStyle;rounded=0;orthogonalLoop=1;jettySize=auto;html=1;exitX=0.25;exitY=0;exitDx=0;exitDy=0;" edge="1" parent="1" source="Ur5sL58et8Hm5xEwITMn-35" target="Ur5sL58et8Hm5xEwITMn-26">
          <mxGeometry relative="1" as="geometry" />
        </mxCell>
        <mxCell id="Ur5sL58et8Hm5xEwITMn-40" value="ALMACEN" style="edgeLabel;html=1;align=center;verticalAlign=middle;resizable=0;points=[];" connectable="0" vertex="1" parent="Ur5sL58et8Hm5xEwITMn-39">
          <mxGeometry x="-0.363" y="1" relative="1" as="geometry">
            <mxPoint as="offset" />
          </mxGeometry>
        </mxCell>
        <mxCell id="Ur5sL58et8Hm5xEwITMn-35" value="&lt;div&gt;AZURE DATA LAKE&lt;/div&gt;&lt;div&gt;SERVICIO&lt;br&gt;&lt;/div&gt;&lt;div&gt;&lt;br&gt;&lt;/div&gt;" style="rounded=1;whiteSpace=wrap;html=1;absoluteArcSize=1;arcSize=14;strokeWidth=2;" vertex="1" parent="1">
          <mxGeometry x="1520" y="628" width="153" height="68" as="geometry" />
        </mxCell>
        <mxCell id="Ur5sL58et8Hm5xEwITMn-38" style="edgeStyle=orthogonalEdgeStyle;rounded=0;orthogonalLoop=1;jettySize=auto;html=1;exitX=1;exitY=0.5;exitDx=0;exitDy=0;entryX=0;entryY=0.5;entryDx=0;entryDy=0;" edge="1" parent="1" source="Ur5sL58et8Hm5xEwITMn-36" target="Ur5sL58et8Hm5xEwITMn-35">
          <mxGeometry relative="1" as="geometry" />
        </mxCell>
        <mxCell id="Ur5sL58et8Hm5xEwITMn-36" value="&lt;div&gt;AZURE STREAM ANALITYS&lt;/div&gt;&lt;div&gt;SERVICIO&lt;/div&gt;&lt;div&gt;&lt;br&gt;&lt;/div&gt;&lt;div&gt;agrega datos por periodos&lt;br&gt;&lt;/div&gt;" style="rounded=1;whiteSpace=wrap;html=1;absoluteArcSize=1;arcSize=14;strokeWidth=2;" vertex="1" parent="1">
          <mxGeometry x="1274.5" y="664" width="144" height="103" as="geometry" />
        </mxCell>
        <mxCell id="Ur5sL58et8Hm5xEwITMn-43" value="" style="edgeStyle=orthogonalEdgeStyle;rounded=0;orthogonalLoop=1;jettySize=auto;html=1;" edge="1" parent="1" source="Ur5sL58et8Hm5xEwITMn-41" target="Ur5sL58et8Hm5xEwITMn-42">
          <mxGeometry relative="1" as="geometry" />
        </mxCell>
        <mxCell id="Ur5sL58et8Hm5xEwITMn-41" value="AZURE DELTA LAKE" style="rounded=1;whiteSpace=wrap;html=1;absoluteArcSize=1;arcSize=14;strokeWidth=2;" vertex="1" parent="1">
          <mxGeometry x="2059" y="849" width="153" height="68" as="geometry" />
        </mxCell>
        <mxCell id="Ur5sL58et8Hm5xEwITMn-42" value="Coherencia transaccional, lotes secuencias" style="rounded=1;whiteSpace=wrap;html=1;absoluteArcSize=1;arcSize=14;strokeWidth=2;" vertex="1" parent="1">
          <mxGeometry x="2229" y="742" width="153" height="68" as="geometry" />
        </mxCell>
        <mxCell id="Ur5sL58et8Hm5xEwITMn-44" style="edgeStyle=orthogonalEdgeStyle;rounded=0;orthogonalLoop=1;jettySize=auto;html=1;exitX=1;exitY=0;exitDx=0;exitDy=0;entryX=0.399;entryY=0;entryDx=0;entryDy=0;entryPerimeter=0;dashed=1;dashPattern=1 4;" edge="1" parent="1" source="Ur5sL58et8Hm5xEwITMn-4" target="Ur5sL58et8Hm5xEwITMn-41">
          <mxGeometry relative="1" as="geometry" />
        </mxCell>
        <mxCell id="Ur5sL58et8Hm5xEwITMn-45" value="Text" style="edgeLabel;html=1;align=center;verticalAlign=middle;resizable=0;points=[];" connectable="0" vertex="1" parent="Ur5sL58et8Hm5xEwITMn-44">
          <mxGeometry x="-0.3177" y="1" relative="1" as="geometry">
            <mxPoint as="offset" />
          </mxGeometry>
        </mxCell>
        <mxCell id="Ur5sL58et8Hm5xEwITMn-48" value="" style="edgeStyle=orthogonalEdgeStyle;rounded=0;orthogonalLoop=1;jettySize=auto;html=1;" edge="1" parent="1" source="Ur5sL58et8Hm5xEwITMn-46" target="Ur5sL58et8Hm5xEwITMn-47">
          <mxGeometry relative="1" as="geometry" />
        </mxCell>
        <mxCell id="e_UDPuE6Xy4Sm-jNLqe0-6" value="" style="edgeStyle=orthogonalEdgeStyle;rounded=0;orthogonalLoop=1;jettySize=auto;html=1;" edge="1" parent="1" source="Ur5sL58et8Hm5xEwITMn-46" target="e_UDPuE6Xy4Sm-jNLqe0-5">
          <mxGeometry relative="1" as="geometry" />
        </mxCell>
        <mxCell id="Ur5sL58et8Hm5xEwITMn-46" value="POWER BI" style="rounded=1;whiteSpace=wrap;html=1;absoluteArcSize=1;arcSize=14;strokeWidth=2;fillColor=#60a917;fontColor=#ffffff;strokeColor=#2D7600;" vertex="1" parent="1">
          <mxGeometry x="-196" y="600" width="153" height="68" as="geometry" />
        </mxCell>
        <mxCell id="Ur5sL58et8Hm5xEwITMn-47" value="&lt;div&gt;Objetos:&lt;/div&gt;&lt;div&gt;1. dispersion-correlacion&lt;br&gt;2. barras - compara valores&lt;br&gt;3. columnas- compara valores&lt;br&gt;&lt;/div&gt;" style="rounded=1;whiteSpace=wrap;html=1;absoluteArcSize=1;arcSize=14;strokeWidth=2;align=left;" vertex="1" parent="1">
          <mxGeometry x="76.5" y="600" width="179.5" height="236" as="geometry" />
        </mxCell>
        <mxCell id="Ur5sL58et8Hm5xEwITMn-49" value="&lt;div&gt;APACHE GREMLIN&lt;/div&gt;&lt;div&gt;&lt;br&gt;&lt;/div&gt;&lt;div&gt;datos jerarquicos, grafos&lt;br&gt;-vertices y bordes&lt;br&gt;- se consulta con graph&lt;/div&gt;&lt;div&gt;- bd no relacional y nodos&lt;br&gt;&lt;/div&gt;" style="rounded=1;whiteSpace=wrap;html=1;absoluteArcSize=1;arcSize=14;strokeWidth=2;" vertex="1" parent="1">
          <mxGeometry x="670" y="759" width="162" height="101" as="geometry" />
        </mxCell>
        <mxCell id="Ur5sL58et8Hm5xEwITMn-50" value="&lt;div&gt;AZURE BLOB STORAGE&lt;/div&gt;&lt;div&gt;SERVICIO&lt;/div&gt;&lt;div&gt;&lt;br&gt;&lt;/div&gt;&lt;div&gt;pdfs, json estaticos&lt;br&gt;&lt;/div&gt;" style="rounded=1;whiteSpace=wrap;html=1;absoluteArcSize=1;arcSize=14;strokeWidth=2;" vertex="1" parent="1">
          <mxGeometry x="1146" y="1248" width="162" height="94" as="geometry" />
        </mxCell>
        <mxCell id="Ur5sL58et8Hm5xEwITMn-51" value="AZURE SQL&lt;br&gt;&lt;div&gt;SERVICIO&lt;/div&gt;&lt;div&gt;&lt;br&gt;&lt;/div&gt;&lt;div&gt;- CRUD&lt;br&gt;&lt;/div&gt;" style="rounded=1;whiteSpace=wrap;html=1;absoluteArcSize=1;arcSize=14;strokeWidth=2;" vertex="1" parent="1">
          <mxGeometry x="918" y="1034" width="162" height="101" as="geometry" />
        </mxCell>
        <mxCell id="Ur5sL58et8Hm5xEwITMn-54" value="" style="edgeStyle=orthogonalEdgeStyle;rounded=0;orthogonalLoop=1;jettySize=auto;html=1;" edge="1" parent="1" source="Ur5sL58et8Hm5xEwITMn-52" target="Ur5sL58et8Hm5xEwITMn-53">
          <mxGeometry relative="1" as="geometry" />
        </mxCell>
        <mxCell id="Ur5sL58et8Hm5xEwITMn-55" value="" style="edgeStyle=orthogonalEdgeStyle;rounded=0;orthogonalLoop=1;jettySize=auto;html=1;" edge="1" parent="1" source="Ur5sL58et8Hm5xEwITMn-52" target="Ur5sL58et8Hm5xEwITMn-53">
          <mxGeometry relative="1" as="geometry" />
        </mxCell>
        <mxCell id="Ur5sL58et8Hm5xEwITMn-56" value="" style="edgeStyle=orthogonalEdgeStyle;rounded=0;orthogonalLoop=1;jettySize=auto;html=1;" edge="1" parent="1" source="Ur5sL58et8Hm5xEwITMn-52" target="Ur5sL58et8Hm5xEwITMn-53">
          <mxGeometry relative="1" as="geometry" />
        </mxCell>
        <mxCell id="Ur5sL58et8Hm5xEwITMn-58" style="edgeStyle=orthogonalEdgeStyle;rounded=0;orthogonalLoop=1;jettySize=auto;html=1;exitX=1;exitY=0;exitDx=0;exitDy=0;entryX=0;entryY=0.25;entryDx=0;entryDy=0;" edge="1" parent="1" source="Ur5sL58et8Hm5xEwITMn-52" target="Ur5sL58et8Hm5xEwITMn-57">
          <mxGeometry relative="1" as="geometry" />
        </mxCell>
        <mxCell id="Ur5sL58et8Hm5xEwITMn-67" style="edgeStyle=orthogonalEdgeStyle;rounded=0;orthogonalLoop=1;jettySize=auto;html=1;exitX=0.5;exitY=1;exitDx=0;exitDy=0;entryX=0.5;entryY=0;entryDx=0;entryDy=0;" edge="1" parent="1" source="Ur5sL58et8Hm5xEwITMn-52" target="Ur5sL58et8Hm5xEwITMn-64">
          <mxGeometry relative="1" as="geometry" />
        </mxCell>
        <mxCell id="Ur5sL58et8Hm5xEwITMn-81" style="edgeStyle=orthogonalEdgeStyle;rounded=0;orthogonalLoop=1;jettySize=auto;html=1;exitX=0.25;exitY=1;exitDx=0;exitDy=0;entryX=0;entryY=0.75;entryDx=0;entryDy=0;" edge="1" parent="1" source="Ur5sL58et8Hm5xEwITMn-52" target="Ur5sL58et8Hm5xEwITMn-80">
          <mxGeometry relative="1" as="geometry" />
        </mxCell>
        <mxCell id="Ur5sL58et8Hm5xEwITMn-52" value="BASES DE DATOS" style="rounded=1;whiteSpace=wrap;html=1;absoluteArcSize=1;arcSize=14;strokeWidth=2;fillColor=#60a917;fontColor=#ffffff;strokeColor=#2D7600;" vertex="1" parent="1">
          <mxGeometry x="-368" y="917" width="153" height="68" as="geometry" />
        </mxCell>
        <mxCell id="Ur5sL58et8Hm5xEwITMn-53" value="OLAP&lt;br&gt;analiticas&lt;br&gt;&lt;br&gt;-copo de nieve, historicos" style="rounded=1;whiteSpace=wrap;html=1;absoluteArcSize=1;arcSize=14;strokeWidth=2;fillColor=#60a917;fontColor=#ffffff;strokeColor=#2D7600;" vertex="1" parent="1">
          <mxGeometry x="31" y="959" width="153" height="68" as="geometry" />
        </mxCell>
        <mxCell id="e_UDPuE6Xy4Sm-jNLqe0-8" value="" style="edgeStyle=orthogonalEdgeStyle;rounded=0;orthogonalLoop=1;jettySize=auto;html=1;" edge="1" parent="1" source="Ur5sL58et8Hm5xEwITMn-57" target="e_UDPuE6Xy4Sm-jNLqe0-7">
          <mxGeometry relative="1" as="geometry" />
        </mxCell>
        <mxCell id="Ur5sL58et8Hm5xEwITMn-57" value="OLTP&lt;br&gt;transaccionales&lt;br&gt;CRUD" style="rounded=1;whiteSpace=wrap;html=1;absoluteArcSize=1;arcSize=14;strokeWidth=2;fillColor=#1ba1e2;fontColor=#ffffff;strokeColor=#006EAF;" vertex="1" parent="1">
          <mxGeometry x="31" y="878" width="153" height="68" as="geometry" />
        </mxCell>
        <mxCell id="Ur5sL58et8Hm5xEwITMn-60" value="" style="edgeStyle=orthogonalEdgeStyle;rounded=0;orthogonalLoop=1;jettySize=auto;html=1;" edge="1" parent="1" source="Ur5sL58et8Hm5xEwITMn-64" target="Ur5sL58et8Hm5xEwITMn-65">
          <mxGeometry relative="1" as="geometry" />
        </mxCell>
        <mxCell id="Ur5sL58et8Hm5xEwITMn-61" value="" style="edgeStyle=orthogonalEdgeStyle;rounded=0;orthogonalLoop=1;jettySize=auto;html=1;" edge="1" parent="1" source="Ur5sL58et8Hm5xEwITMn-64" target="Ur5sL58et8Hm5xEwITMn-65">
          <mxGeometry relative="1" as="geometry" />
        </mxCell>
        <mxCell id="Ur5sL58et8Hm5xEwITMn-62" value="" style="edgeStyle=orthogonalEdgeStyle;rounded=0;orthogonalLoop=1;jettySize=auto;html=1;" edge="1" parent="1" source="Ur5sL58et8Hm5xEwITMn-64" target="Ur5sL58et8Hm5xEwITMn-65">
          <mxGeometry relative="1" as="geometry" />
        </mxCell>
        <mxCell id="Ur5sL58et8Hm5xEwITMn-63" style="edgeStyle=orthogonalEdgeStyle;rounded=0;orthogonalLoop=1;jettySize=auto;html=1;exitX=1;exitY=0;exitDx=0;exitDy=0;entryX=0;entryY=0.25;entryDx=0;entryDy=0;" edge="1" parent="1" source="Ur5sL58et8Hm5xEwITMn-64" target="Ur5sL58et8Hm5xEwITMn-66">
          <mxGeometry relative="1" as="geometry" />
        </mxCell>
        <mxCell id="Ur5sL58et8Hm5xEwITMn-69" style="edgeStyle=orthogonalEdgeStyle;rounded=0;orthogonalLoop=1;jettySize=auto;html=1;exitX=0.75;exitY=1;exitDx=0;exitDy=0;entryX=0;entryY=0.5;entryDx=0;entryDy=0;" edge="1" parent="1" source="Ur5sL58et8Hm5xEwITMn-64" target="Ur5sL58et8Hm5xEwITMn-68">
          <mxGeometry relative="1" as="geometry" />
        </mxCell>
        <mxCell id="Ur5sL58et8Hm5xEwITMn-64" value="TIPO DATOS" style="rounded=1;whiteSpace=wrap;html=1;absoluteArcSize=1;arcSize=14;strokeWidth=2;fillColor=#d80073;fontColor=#ffffff;strokeColor=#A50040;" vertex="1" parent="1">
          <mxGeometry x="-194.5" y="1104" width="153" height="68" as="geometry" />
        </mxCell>
        <mxCell id="Ur5sL58et8Hm5xEwITMn-65" value="SEMIESTRUCTURADOS&lt;br&gt;&lt;div&gt;&lt;br/&gt;&lt;/div&gt;" style="rounded=1;whiteSpace=wrap;html=1;absoluteArcSize=1;arcSize=14;strokeWidth=2;fillColor=#0050ef;fontColor=#ffffff;strokeColor=#001DBC;" vertex="1" parent="1">
          <mxGeometry x="32.5" y="1166" width="153" height="68" as="geometry" />
        </mxCell>
        <mxCell id="Ur5sL58et8Hm5xEwITMn-66" value="ESTRUCTURADOS" style="rounded=1;whiteSpace=wrap;html=1;absoluteArcSize=1;arcSize=14;strokeWidth=2;fillColor=#1ba1e2;fontColor=#ffffff;strokeColor=#006EAF;" vertex="1" parent="1">
          <mxGeometry x="32.5" y="1085" width="153" height="68" as="geometry" />
        </mxCell>
        <mxCell id="Ur5sL58et8Hm5xEwITMn-68" value="NO ESTRUCTURADOS&lt;br&gt;&lt;br&gt;- familia columnas" style="rounded=1;whiteSpace=wrap;html=1;absoluteArcSize=1;arcSize=14;strokeWidth=2;fillColor=#0050ef;fontColor=#ffffff;strokeColor=#001DBC;" vertex="1" parent="1">
          <mxGeometry x="32.5" y="1254" width="153" height="68" as="geometry" />
        </mxCell>
        <mxCell id="Ur5sL58et8Hm5xEwITMn-76" style="edgeStyle=orthogonalEdgeStyle;rounded=0;orthogonalLoop=1;jettySize=auto;html=1;exitX=1;exitY=0.5;exitDx=0;exitDy=0;entryX=0;entryY=0.5;entryDx=0;entryDy=0;" edge="1" parent="1" source="Ur5sL58et8Hm5xEwITMn-70" target="Ur5sL58et8Hm5xEwITMn-75">
          <mxGeometry relative="1" as="geometry" />
        </mxCell>
        <mxCell id="Ur5sL58et8Hm5xEwITMn-77" style="edgeStyle=orthogonalEdgeStyle;rounded=0;orthogonalLoop=1;jettySize=auto;html=1;exitX=1;exitY=1;exitDx=0;exitDy=0;entryX=0;entryY=0.5;entryDx=0;entryDy=0;" edge="1" parent="1" source="Ur5sL58et8Hm5xEwITMn-70" target="Ur5sL58et8Hm5xEwITMn-74">
          <mxGeometry relative="1" as="geometry" />
        </mxCell>
        <mxCell id="Ur5sL58et8Hm5xEwITMn-78" style="edgeStyle=orthogonalEdgeStyle;rounded=0;orthogonalLoop=1;jettySize=auto;html=1;exitX=0.75;exitY=1;exitDx=0;exitDy=0;entryX=0;entryY=0.5;entryDx=0;entryDy=0;" edge="1" parent="1" source="Ur5sL58et8Hm5xEwITMn-70" target="Ur5sL58et8Hm5xEwITMn-73">
          <mxGeometry relative="1" as="geometry" />
        </mxCell>
        <mxCell id="Ur5sL58et8Hm5xEwITMn-79" style="edgeStyle=orthogonalEdgeStyle;rounded=0;orthogonalLoop=1;jettySize=auto;html=1;exitX=0.5;exitY=1;exitDx=0;exitDy=0;entryX=0;entryY=0.5;entryDx=0;entryDy=0;" edge="1" parent="1" source="Ur5sL58et8Hm5xEwITMn-70" target="Ur5sL58et8Hm5xEwITMn-72">
          <mxGeometry relative="1" as="geometry" />
        </mxCell>
        <mxCell id="Ur5sL58et8Hm5xEwITMn-70" value="ARCHIVOS" style="rounded=1;whiteSpace=wrap;html=1;absoluteArcSize=1;arcSize=14;strokeWidth=2;fillColor=#e3c800;fontColor=#000000;strokeColor=#B09500;" vertex="1" parent="1">
          <mxGeometry x="-192" y="1369" width="153" height="68" as="geometry" />
        </mxCell>
        <mxCell id="Ur5sL58et8Hm5xEwITMn-71" style="edgeStyle=orthogonalEdgeStyle;rounded=0;orthogonalLoop=1;jettySize=auto;html=1;exitX=0.5;exitY=1;exitDx=0;exitDy=0;entryX=0.464;entryY=0.015;entryDx=0;entryDy=0;entryPerimeter=0;" edge="1" parent="1" source="Ur5sL58et8Hm5xEwITMn-64" target="Ur5sL58et8Hm5xEwITMn-70">
          <mxGeometry relative="1" as="geometry" />
        </mxCell>
        <mxCell id="e_UDPuE6Xy4Sm-jNLqe0-4" value="" style="edgeStyle=orthogonalEdgeStyle;rounded=0;orthogonalLoop=1;jettySize=auto;html=1;" edge="1" parent="1" source="Ur5sL58et8Hm5xEwITMn-73" target="e_UDPuE6Xy4Sm-jNLqe0-3">
          <mxGeometry relative="1" as="geometry" />
        </mxCell>
        <mxCell id="Ur5sL58et8Hm5xEwITMn-72" value="ORC&lt;br&gt;-datos en columnas" style="rounded=1;whiteSpace=wrap;html=1;absoluteArcSize=1;arcSize=14;strokeWidth=2;fillColor=#1ba1e2;fontColor=#ffffff;strokeColor=#006EAF;" vertex="1" parent="1">
          <mxGeometry x="18" y="1616" width="153" height="68" as="geometry" />
        </mxCell>
        <mxCell id="Ur5sL58et8Hm5xEwITMn-73" value="PARQUET&lt;br&gt;-datos en columnas" style="rounded=1;whiteSpace=wrap;html=1;absoluteArcSize=1;arcSize=14;strokeWidth=2;fillColor=#1ba1e2;fontColor=#ffffff;strokeColor=#006EAF;" vertex="1" parent="1">
          <mxGeometry x="18" y="1535" width="153" height="68" as="geometry" />
        </mxCell>
        <mxCell id="Ur5sL58et8Hm5xEwITMn-74" value="CSV&lt;br&gt;-delimitados" style="rounded=1;whiteSpace=wrap;html=1;absoluteArcSize=1;arcSize=14;strokeWidth=2;fillColor=#1ba1e2;fontColor=#ffffff;strokeColor=#006EAF;" vertex="1" parent="1">
          <mxGeometry x="18" y="1454" width="153" height="68" as="geometry" />
        </mxCell>
        <mxCell id="Ur5sL58et8Hm5xEwITMn-75" value="AVRO&lt;br&gt;- basado en filas" style="rounded=1;whiteSpace=wrap;html=1;absoluteArcSize=1;arcSize=14;strokeWidth=2;fillColor=#1ba1e2;fontColor=#ffffff;strokeColor=#006EAF;" vertex="1" parent="1">
          <mxGeometry x="18" y="1373" width="153" height="68" as="geometry" />
        </mxCell>
        <mxCell id="Ur5sL58et8Hm5xEwITMn-89" style="edgeStyle=orthogonalEdgeStyle;rounded=0;orthogonalLoop=1;jettySize=auto;html=1;exitX=1;exitY=0.25;exitDx=0;exitDy=0;entryX=0;entryY=0.5;entryDx=0;entryDy=0;" edge="1" parent="1" source="Ur5sL58et8Hm5xEwITMn-80" target="Ur5sL58et8Hm5xEwITMn-84">
          <mxGeometry relative="1" as="geometry" />
        </mxCell>
        <mxCell id="Ur5sL58et8Hm5xEwITMn-91" style="edgeStyle=orthogonalEdgeStyle;rounded=0;orthogonalLoop=1;jettySize=auto;html=1;exitX=0.75;exitY=1;exitDx=0;exitDy=0;entryX=0;entryY=0.5;entryDx=0;entryDy=0;" edge="1" parent="1" source="Ur5sL58et8Hm5xEwITMn-80" target="Ur5sL58et8Hm5xEwITMn-86">
          <mxGeometry relative="1" as="geometry" />
        </mxCell>
        <mxCell id="Ur5sL58et8Hm5xEwITMn-92" style="edgeStyle=orthogonalEdgeStyle;rounded=0;orthogonalLoop=1;jettySize=auto;html=1;exitX=0.5;exitY=1;exitDx=0;exitDy=0;entryX=0;entryY=0.75;entryDx=0;entryDy=0;" edge="1" parent="1" source="Ur5sL58et8Hm5xEwITMn-80" target="Ur5sL58et8Hm5xEwITMn-87">
          <mxGeometry relative="1" as="geometry" />
        </mxCell>
        <mxCell id="Ur5sL58et8Hm5xEwITMn-93" style="edgeStyle=orthogonalEdgeStyle;rounded=0;orthogonalLoop=1;jettySize=auto;html=1;exitX=0.25;exitY=1;exitDx=0;exitDy=0;entryX=0;entryY=0.75;entryDx=0;entryDy=0;" edge="1" parent="1" source="Ur5sL58et8Hm5xEwITMn-80" target="Ur5sL58et8Hm5xEwITMn-82">
          <mxGeometry relative="1" as="geometry" />
        </mxCell>
        <mxCell id="Ur5sL58et8Hm5xEwITMn-80" value="ROLES" style="rounded=1;whiteSpace=wrap;html=1;absoluteArcSize=1;arcSize=14;strokeWidth=2;fillColor=#e51400;fontColor=#ffffff;strokeColor=#B20000;" vertex="1" parent="1">
          <mxGeometry x="-156" y="1755" width="153" height="68" as="geometry" />
        </mxCell>
        <mxCell id="Ur5sL58et8Hm5xEwITMn-82" value="CIENTIFICO DATOS" style="rounded=1;whiteSpace=wrap;html=1;absoluteArcSize=1;arcSize=14;strokeWidth=2;fillColor=#fad9d5;strokeColor=#ae4132;" vertex="1" parent="1">
          <mxGeometry x="80" y="2029" width="153" height="68" as="geometry" />
        </mxCell>
        <mxCell id="Ur5sL58et8Hm5xEwITMn-84" value="DBA&lt;br&gt;mantiene las bds" style="rounded=1;whiteSpace=wrap;html=1;absoluteArcSize=1;arcSize=14;strokeWidth=2;fillColor=#fad7ac;strokeColor=#b46504;" vertex="1" parent="1">
          <mxGeometry x="82" y="1767" width="153" height="68" as="geometry" />
        </mxCell>
        <mxCell id="Ur5sL58et8Hm5xEwITMn-87" value="ING BD&lt;br&gt;-crean bases de datos" style="rounded=1;whiteSpace=wrap;html=1;absoluteArcSize=1;arcSize=14;strokeWidth=2;fillColor=#fad9d5;strokeColor=#ae4132;" vertex="1" parent="1">
          <mxGeometry x="77" y="1946" width="153" height="68" as="geometry" />
        </mxCell>
        <mxCell id="Ur5sL58et8Hm5xEwITMn-86" value="ANALISTA BD&lt;br&gt;-usa datos decisiones empresariales&lt;br&gt;-crea modelos, etl" style="rounded=1;whiteSpace=wrap;html=1;absoluteArcSize=1;arcSize=14;strokeWidth=2;fillColor=#fad7ac;strokeColor=#b46504;" vertex="1" parent="1">
          <mxGeometry x="84" y="1860" width="153" height="68" as="geometry" />
        </mxCell>
        <mxCell id="Ur5sL58et8Hm5xEwITMn-96" value="" style="edgeStyle=orthogonalEdgeStyle;rounded=0;orthogonalLoop=1;jettySize=auto;html=1;" edge="1" parent="1" source="Ur5sL58et8Hm5xEwITMn-94" target="Ur5sL58et8Hm5xEwITMn-95">
          <mxGeometry relative="1" as="geometry" />
        </mxCell>
        <mxCell id="Ur5sL58et8Hm5xEwITMn-94" value="AZURE STORAGE" style="rounded=1;whiteSpace=wrap;html=1;absoluteArcSize=1;arcSize=14;strokeWidth=2;fillColor=#fad7ac;strokeColor=#b46504;" vertex="1" parent="1">
          <mxGeometry x="1150" y="1119" width="162" height="94" as="geometry" />
        </mxCell>
        <mxCell id="Ur5sL58et8Hm5xEwITMn-95" value="- table storage: tablas bidimensionales, clave:valor&lt;br&gt;&lt;br&gt;- SMB / nfs maquinas virtuales-archivos de azure compartidos&lt;br&gt;- datalake storage gen2 almacena grandes cantidades no compartidas&lt;br&gt;- azure sql: bd relacionales&lt;br&gt;&lt;br&gt;- blob en bloques en nivel archivo-imagenes nuevas o modificadas. menos costo&lt;br&gt;&lt;br&gt;- blob en paginas- discos duros virtuales optimizado leer/escribir" style="rounded=1;whiteSpace=wrap;html=1;absoluteArcSize=1;arcSize=14;strokeWidth=2;align=left;" vertex="1" parent="1">
          <mxGeometry x="1392" y="1084" width="238" height="269" as="geometry" />
        </mxCell>
        <mxCell id="Ur5sL58et8Hm5xEwITMn-97" value="APACHE CASSANDRA&lt;br&gt;-datos tabulares, familia de columnas&lt;br&gt;se consulta sintaxis sql" style="rounded=1;whiteSpace=wrap;html=1;absoluteArcSize=1;arcSize=14;strokeWidth=2;" vertex="1" parent="1">
          <mxGeometry x="667" y="880" width="162" height="101" as="geometry" />
        </mxCell>
        <mxCell id="Ur5sL58et8Hm5xEwITMn-98" value="MONGODB&lt;br&gt;-BSON&lt;br&gt;-se consulta con MQL" style="rounded=1;whiteSpace=wrap;html=1;absoluteArcSize=1;arcSize=14;strokeWidth=2;" vertex="1" parent="1">
          <mxGeometry x="670" y="992" width="162" height="101" as="geometry" />
        </mxCell>
        <mxCell id="Ur5sL58et8Hm5xEwITMn-99" value="API TABLE- clave valor&lt;br&gt;-se consulta OData y LINQ" style="rounded=1;whiteSpace=wrap;html=1;absoluteArcSize=1;arcSize=14;strokeWidth=2;" vertex="1" parent="1">
          <mxGeometry x="667" y="1104" width="162" height="101" as="geometry" />
        </mxCell>
        <mxCell id="2TvXG0lYQUJPYE8Xq-nl-5" value="latencia se mide en milisegundos" style="shape=note;whiteSpace=wrap;html=1;backgroundOutline=1;darkOpacity=0.05;" vertex="1" parent="1">
          <mxGeometry x="1620" y="393" width="80" height="100" as="geometry" />
        </mxCell>
        <mxCell id="2TvXG0lYQUJPYE8Xq-nl-6" value="almacena archivos gen2" style="shape=note;whiteSpace=wrap;html=1;backgroundOutline=1;darkOpacity=0.05;" vertex="1" parent="1">
          <mxGeometry x="1775" y="593" width="80" height="100" as="geometry" />
        </mxCell>
        <mxCell id="2TvXG0lYQUJPYE8Xq-nl-7" style="edgeStyle=orthogonalEdgeStyle;rounded=0;orthogonalLoop=1;jettySize=auto;html=1;exitX=1;exitY=0.25;exitDx=0;exitDy=0;entryX=0;entryY=0.38;entryDx=0;entryDy=0;entryPerimeter=0;" edge="1" parent="1" source="Ur5sL58et8Hm5xEwITMn-35" target="2TvXG0lYQUJPYE8Xq-nl-6">
          <mxGeometry relative="1" as="geometry" />
        </mxCell>
        <mxCell id="2TvXG0lYQUJPYE8Xq-nl-8" value="Explorador de datos AZURE&lt;br&gt;analisis de peticion grandes volumenes de datos textos, sitios web iot" style="rounded=1;whiteSpace=wrap;html=1;absoluteArcSize=1;arcSize=14;strokeWidth=2;" vertex="1" parent="1">
          <mxGeometry x="1670" y="1091" width="183" height="133" as="geometry" />
        </mxCell>
        <mxCell id="2TvXG0lYQUJPYE8Xq-nl-11" value="" style="edgeStyle=orthogonalEdgeStyle;rounded=0;orthogonalLoop=1;jettySize=auto;html=1;" edge="1" parent="1" source="2TvXG0lYQUJPYE8Xq-nl-9" target="2TvXG0lYQUJPYE8Xq-nl-10">
          <mxGeometry relative="1" as="geometry" />
        </mxCell>
        <mxCell id="2TvXG0lYQUJPYE8Xq-nl-9" value="&lt;div&gt;AZURE SQL DATABASE&lt;br&gt;&lt;br&gt;- Instancia de sql paas sin servidor, sin licencias&lt;br&gt;-compatible sql server 2016&lt;br&gt;&lt;/div&gt;" style="rounded=1;whiteSpace=wrap;html=1;absoluteArcSize=1;arcSize=14;strokeWidth=2;fillColor=#fad7ac;strokeColor=#b46504;" vertex="1" parent="1">
          <mxGeometry x="1148" y="1390" width="162" height="94" as="geometry" />
        </mxCell>
        <mxCell id="2TvXG0lYQUJPYE8Xq-nl-10" value="Instancia Administrada Azure SQL&lt;br&gt;- servicio para migrar un servidor sqk a la nube" style="rounded=1;whiteSpace=wrap;html=1;absoluteArcSize=1;arcSize=14;strokeWidth=2;fillColor=#fad7ac;strokeColor=#b46504;" vertex="1" parent="1">
          <mxGeometry x="1390" y="1390" width="187" height="94" as="geometry" />
        </mxCell>
        <mxCell id="2TvXG0lYQUJPYE8Xq-nl-12" value="&lt;div&gt;- azure blob storage +&lt;/div&gt;&lt;div&gt;- almacen de azure data lake : procesa grandes volumenes de datos&lt;br&gt;&lt;/div&gt;" style="rounded=1;whiteSpace=wrap;html=1;absoluteArcSize=1;arcSize=14;strokeWidth=2;" vertex="1" parent="1">
          <mxGeometry x="1533" y="753" width="140" height="122" as="geometry" />
        </mxCell>
        <mxCell id="2TvXG0lYQUJPYE8Xq-nl-14" value="AZURE TABLE STORAGE&lt;br&gt;- rowkey es unico tabla particion&lt;br&gt;- los elementos de la particion se almacenan en orden" style="rounded=1;whiteSpace=wrap;html=1;absoluteArcSize=1;arcSize=14;strokeWidth=2;" vertex="1" parent="1">
          <mxGeometry x="1676.5" y="1271" width="153" height="132" as="geometry" />
        </mxCell>
        <mxCell id="2TvXG0lYQUJPYE8Xq-nl-15" value="Base de datos de serie temporal&lt;br&gt;-datos secuenciales" style="rounded=1;whiteSpace=wrap;html=1;absoluteArcSize=1;arcSize=14;strokeWidth=2;" vertex="1" parent="1">
          <mxGeometry x="1871" y="1096" width="197" height="133" as="geometry" />
        </mxCell>
        <mxCell id="2TvXG0lYQUJPYE8Xq-nl-16" value="carga de trabajos analiticos&lt;br&gt;- desnormalizados y optimizado para lectura" style="whiteSpace=wrap;html=1;verticalAlign=top;strokeWidth=2;" vertex="1" parent="1">
          <mxGeometry x="940.5" y="644" width="120" height="104" as="geometry" />
        </mxCell>
        <mxCell id="e_UDPuE6Xy4Sm-jNLqe0-3" value="Excel a parquet primero un servicio vinculado" style="rounded=1;whiteSpace=wrap;html=1;absoluteArcSize=1;arcSize=14;strokeWidth=2;fillColor=#1ba1e2;fontColor=#ffffff;strokeColor=#006EAF;" vertex="1" parent="1">
          <mxGeometry x="233" y="1545" width="153" height="68" as="geometry" />
        </mxCell>
        <mxCell id="e_UDPuE6Xy4Sm-jNLqe0-5" value="&lt;div&gt;1. app telefono ve info&lt;/div&gt;&lt;div&gt;2. bi desktop definir modelo&lt;/div&gt;&lt;div&gt;3. servicio bi servir datos&lt;/div&gt;&lt;div&gt;4. data factory ejecuta etl&lt;br&gt;&lt;/div&gt;" style="rounded=1;whiteSpace=wrap;html=1;absoluteArcSize=1;arcSize=14;strokeWidth=2;" vertex="1" parent="1">
          <mxGeometry x="-196" y="452" width="153" height="115" as="geometry" />
        </mxCell>
        <mxCell id="e_UDPuE6Xy4Sm-jNLqe0-7" value="lineas de negocios LOB, aplicaciones en directo" style="rounded=1;whiteSpace=wrap;html=1;absoluteArcSize=1;arcSize=14;strokeWidth=2;" vertex="1" parent="1">
          <mxGeometry x="264" y="878" width="153" height="68" as="geometry" />
        </mxCell>
      </root>
    </mxGraphModel>
  </diagram>
</mxfile>
